diff --git a/images/cafe-night.svg b/images/cafe-night.svg
new file mode 100644
index 0000000000000000000000000000000000000000..8998f484c0f2491f4705126fd4f7f40d5d9f68fe
--- /dev/null
+++ b/images/cafe-night.svg
@@ -0,0 +1,34 @@
+<svg xmlns="http://www.w3.org/2000/svg" width="1000" height="600" viewBox="0 0 1000 600" role="img" aria-label="Cozy cafe nighttime illustration">
+  <defs>
+    <linearGradient id="nightSky" x1="0" y1="0" x2="0" y2="1">
+      <stop offset="0%" stop-color="#0d1b2a"/>
+      <stop offset="100%" stop-color="#1b263b"/>
+    </linearGradient>
+    <linearGradient id="nightWall" x1="0" y1="0" x2="0" y2="1">
+      <stop offset="0%" stop-color="#6d6875"/>
+      <stop offset="100%" stop-color="#4a4e69"/>
+    </linearGradient>
+  </defs>
+
+  <rect width="1000" height="360" fill="url(#nightSky)"/>
+  <circle cx="140" cy="90" r="45" fill="#f5f3ce"/>
+  <circle cx="125" cy="85" r="45" fill="#0d1b2a"/>
+  <circle cx="230" cy="70" r="3" fill="#e0e1dd"/>
+  <circle cx="270" cy="115" r="2" fill="#e0e1dd"/>
+  <circle cx="200" cy="140" r="2" fill="#e0e1dd"/>
+  <rect y="360" width="1000" height="240" fill="#283618"/>
+
+  <rect x="190" y="170" width="620" height="300" rx="12" fill="url(#nightWall)"/>
+  <rect x="170" y="145" width="660" height="40" rx="8" fill="#3d2c2e"/>
+  <text x="500" y="172" text-anchor="middle" font-family="Arial, sans-serif" font-size="30" fill="#ffe8d6">☕ Cozy Corner Café</text>
+
+  <rect x="260" y="230" width="140" height="120" fill="#ffd166" opacity="0.7" stroke="#8d6e63" stroke-width="8"/>
+  <rect x="430" y="230" width="140" height="120" fill="#ffd166" opacity="0.7" stroke="#8d6e63" stroke-width="8"/>
+  <rect x="600" y="230" width="140" height="120" fill="#ffd166" opacity="0.7" stroke="#8d6e63" stroke-width="8"/>
+
+  <rect x="455" y="380" width="90" height="90" fill="#3e2723"/>
+  <circle cx="500" cy="425" r="10" fill="#bcaaa4"/>
+
+  <ellipse cx="310" cy="490" rx="50" ry="18" fill="#4e342e"/>
+  <ellipse cx="690" cy="490" rx="50" ry="18" fill="#4e342e"/>
+</svg>
